<?xml version="1.0" encoding="utf-8"?>
<!-- Generator: Adobe Illustrator 21.1.0, SVG Export Plug-In . SVG Version: 6.00 Build 0)  -->
<svg version="1.1" id="图层_1" xmlns="http://www.w3.org/2000/svg" xmlns:xlink="http://www.w3.org/1999/xlink" x="0px" y="0px"
	 viewBox="0 0 24 24" style="enable-background:new 0 0 24 24;" xml:space="preserve">
<path d="M3.9,8.8v8.6c0,0.8,0.6,1.4,1.4,1.4l0,0h1.8L8,20.4c0.1,0.1,0.2,0.2,0.3,0.2c0.1,0,0.2-0.1,0.3-0.2l0.9-1.5h4.9l0.9,1.5
	c0.1,0.1,0.2,0.2,0.3,0.2s0.2-0.1,0.3-0.2l0.9-1.5h1.9c0.8,0,1.4-0.6,1.4-1.4V8.8c0-0.8-0.7-1.4-1.4-1.4h-5.4l3.2-3.2l-0.8-0.8
	l-3.6,3.7L8.4,3.5L7.6,4.3l3.1,3.1H5.4C4.6,7.4,3.9,8,3.9,8.8L3.9,8.8L3.9,8.8z"/>
</svg>
